HIERARCHY
ROOT hip
{
  OFFSET 0 0 0
  CHANNELS 6 Xposition Yposition Zposition Zrotation Yrotation Xrotation
  JOINT abdomen
  {
    OFFSET 0 20.6881 -0.73152
    CHANNELS 3 Zrotation Xrotation Yrotation
    JOINT chest
    {
      OFFSET 0 11.7043 -0.48768
      CHANNELS 3 Zrotation Xrotation Yrotation
      JOINT neck
      {
        OFFSET 0 22.1894 -2.19456
        CHANNELS 3 Zrotation Xrotation Yrotation
        JOINT head
        {
          OFFSET -0.24384 7.07133 1.2192
          CHANNELS 3 Zrotation Xrotation Yrotation
          JOINT leftEye
          {
            OFFSET 4.14528 8.04674 8.04672
            CHANNELS 3 Zrotation Xrotation Yrotation
            End Site
            {
              OFFSET 1 0 0
            }
          }
          JOINT rightEye
          {
            OFFSET -3.6576 8.04674 8.04672
            CHANNELS 3 Zrotation Xrotation Yrotation
            End Site
            {
              OFFSET 1 0 0
            }
          }
        }
      }
      JOINT rCollar
      {
        OFFSET -2.68224 19.2634 -4.8768
        CHANNELS 3 Zrotation Xrotation Yrotation
        JOINT rShldr
        {
          OFFSET -8.77824 -1.95073 1.46304
          CHANNELS 3 Zrotation Xrotation Yrotation
          JOINT rForeArm
          {
            OFFSET -28.1742 -1.7115 0.48768
            CHANNELS 3 Zrotation Xrotation Yrotation
            JOINT rHand
            {
              OFFSET -22.5879 0.773209 7.07136
              CHANNELS 3 Zrotation Xrotation Yrotation
              JOINT rThumb1
              {
                OFFSET -1.2192 -0.487915 3.41376
                CHANNELS 3 Zrotation Xrotation Yrotation
                JOINT rThumb2
                {
                  OFFSET -3.37035 -0.52449 3.41376
                  CHANNELS 3 Zrotation Xrotation Yrotation
                  End Site
                  {
                    OFFSET -1.78271 -1.18214 1.43049
                  }
                }
              }
              JOINT rIndex1
              {
                OFFSET -7.75947 0.938293 5.60832
                CHANNELS 3 Zrotation Xrotation Yrotation
                JOINT rIndex2
                {
                  OFFSET -2.54057 -0.884171 1.56538
                  CHANNELS 3 Zrotation Xrotation Yrotation
                  End Site
                  {
                    OFFSET -1.62519 -0.234802 1.16502
                  }
                }
              }
              JOINT rMid1
              {
                OFFSET -8.24714 1.18213 3.41376
                CHANNELS 3 Zrotation Xrotation Yrotation
                JOINT rMid2
                {
                  OFFSET -3.10165 -0.590103 1.0647
                  CHANNELS 3 Zrotation Xrotation Yrotation
                  End Site
                  {
                    OFFSET -2.48547 -0.328903 0.83742
                  }
                }
              }
              JOINT rRing1
              {
                OFFSET -8.82822 0.546677 1.51678
                CHANNELS 3 Zrotation Xrotation Yrotation
                JOINT rRing2
                {
                  OFFSET -2.60934 -0.819778 -0.0198488
                  CHANNELS 3 Zrotation Xrotation Yrotation
                  End Site
                  {
                    OFFSET -2.33842 -0.294052 0.168128
                  }
                }
              }
              JOINT rPinky1
              {
                OFFSET -8.27202 -0.0477905 -0.4584
                CHANNELS 3 Zrotation Xrotation Yrotation
                JOINT rPinky2
                {
                  OFFSET -1.82734 -0.647385 -0.700984
                  CHANNELS 3 Zrotation Xrotation Yrotation
                  End Site
                  {
                    OFFSET -1.69225 -0.51767 -0.607171
                  }
                }
              }
            }
          }
        }
      }
      JOINT lCollar
      {
        OFFSET 2.68224 19.2634 -4.8768
        CHANNELS 3 Zrotation Xrotation Yrotation
        JOINT lShldr
        {
          OFFSET 8.77824 -1.95073 1.46304
          CHANNELS 3 Zrotation Xrotation Yrotation
          JOINT lForeArm
          {
            OFFSET 28.1742 -1.7115 0.48768
            CHANNELS 3 Zrotation Xrotation Yrotation
            JOINT lHand
            {
              OFFSET 22.5879 0.773209 7.07136
              CHANNELS 3 Zrotation Xrotation Yrotation
              JOINT lThumb1
              {
                OFFSET 1.2192 -0.487915 3.41376
                CHANNELS 3 Zrotation Xrotation Yrotation
                JOINT lThumb2
                {
                  OFFSET 3.37035 -0.52449 3.41376
                  CHANNELS 3 Zrotation Xrotation Yrotation
                  End Site
                  {
                    OFFSET 1.78271 -1.18214 1.43049
                  }
                }
              }
              JOINT lIndex1
              {
                OFFSET 7.75947 0.938293 5.60832
                CHANNELS 3 Zrotation Xrotation Yrotation
                JOINT lIndex2
                {
                  OFFSET 2.54057 -0.884171 1.56538
                  CHANNELS 3 Zrotation Xrotation Yrotation
                  End Site
                  {
                    OFFSET 1.62519 -0.234802 1.16502
                  }
                }
              }
              JOINT lMid1
              {
                OFFSET 8.24714 1.18213 3.41376
                CHANNELS 3 Zrotation Xrotation Yrotation
                JOINT lMid2
                {
                  OFFSET 3.10165 -0.590103 1.0647
                  CHANNELS 3 Zrotation Xrotation Yrotation
                  End Site
                  {
                    OFFSET 2.48547 -0.328903 0.83742
                  }
                }
              }
              JOINT lRing1
              {
                OFFSET 8.82822 0.546677 1.51678
                CHANNELS 3 Zrotation Xrotation Yrotation
                JOINT lRing2
                {
                  OFFSET 2.60934 -0.819778 -0.0198488
                  CHANNELS 3 Zrotation Xrotation Yrotation
                  End Site
                  {
                    OFFSET 2.33842 -0.294052 0.168128
                  }
                }
              }
              JOINT lPinky1
              {
                OFFSET 8.27202 -0.0477905 -0.4584
                CHANNELS 3 Zrotation Xrotation Yrotation
                JOINT lPinky2
                {
                  OFFSET 1.82734 -0.647385 -0.700984
                  CHANNELS 3 Zrotation Xrotation Yrotation
                  End Site
                  {
                    OFFSET 1.69225 -0.51767 -0.607171
                  }
                }
              }
            }
          }
        }
      }
    }
  }
  JOINT rButtock
  {
    OFFSET -8.77824 4.35084 1.2192
    CHANNELS 3 Zrotation Xrotation Yrotation
    JOINT rThigh
    {
      OFFSET 0 -1.70687 -2.19456
      CHANNELS 3 Zrotation Xrotation Yrotation
      JOINT rShin
      {
        OFFSET 0 -36.8199 0.73152
        CHANNELS 3 Zrotation Xrotation Yrotation
        JOINT rFoot
        {
          OFFSET 0.73152 -45.1104 -5.12064
          CHANNELS 3 Zrotation Xrotation Yrotation
          End Site
          {
            OFFSET -1.1221 -3.69964 12.103
          }
        }
      }
    }
  }
  JOINT lButtock
  {
    OFFSET 8.77824 4.35084 1.2192
    CHANNELS 3 Zrotation Xrotation Yrotation
    JOINT lThigh
    {
      OFFSET 0 -1.70687 -2.19456
      CHANNELS 3 Zrotation Xrotation Yrotation
      JOINT lShin
      {
        OFFSET 0 -36.8199 0.73152
        CHANNELS 3 Zrotation Xrotation Yrotation
        JOINT lFoot
        {
          OFFSET -0.73152 -45.1104 -5.12064
          CHANNELS 3 Zrotation Xrotation Yrotation
          End Site
          {
            OFFSET 1.1221 -3.69964 12.103
          }
        }
      }
    }
  }
}
MOTION
Frames:	4
Frame Time:	0.03333
-32.82062663873566 42.85758606056494 20.125486485077573 11.493002891540527 -72.72679901123047 -16.840984344482422 -6.808629989624023 11.983501434326172 -0.6702250242233276 6.141700267791748 -9.66526985168457 0.17472898960113525 -7.472169399261475 12.885998725891113 -9.365299224853516 4.992918491363525 -19.609298706054688 -17.231000900268555 -0.0 0.0 -0.0 -0.0 0.0 -0.0 -8.905552619127566e-14 -2.51899911520026e-12 9.159996979674068e-13 39.12049865722656 -2.300990104675293 66.54940032958984 -15.784997940063477 -8.488999366760254 29.220096588134766 -0.04553300514817238 6.078629970550537 0.8575479984283447 -5.01541652653259e-09 3.4385611025200546e-10 -4.261332176014321e-09 -8.686819263914458e-09 6.020789422578332e-10 -7.337253027372981e-09 -5.01541652653259e-09 3.4385611025200546e-10 -4.261332176014321e-09 7.7309088706970215 5.474880218505859 0.41731396317481995 -5.01541652653259e-09 3.4385611025200546e-10 -4.261319741516445e-09 2.9055399894714355 0.9651829600334167 0.10290198773145676 -5.0154036479455044e-09 3.4385611025200546e-10 -4.261332176014321e-09 10.27859878540039 0.73180091381073 0.025912299752235413 -5.015428961030466e-09 3.4385611025200546e-10 -4.261319741516445e-09 2.2216696739196777 -0.7334870100021362 -0.2089199721813202 -8.905552619127566e-14 -2.51899911520026e-12 9.159996979674068e-13 -109.3949966430664 64.35529327392578 30.259197235107422 28.382200241088867 -37.335201263427734 -79.26609802246094 5.980179309844971 -54.8246955871582 11.502498626708984 -3.4222765680352873e-12 5.807437863936116e-10 -1.1710292735500616e-09 3.793765301907115e-11 1.0451047804949098e-09 -1.998412324510923e-09 -3.4222765680352873e-12 5.807437863936116e-10 -1.1710229452788212e-09 -7.7309088706970215 5.474880218505859 -0.41731396317481995 -3.4349988131676668e-12 5.807565539583948e-10 -1.1710674652221087e-09 -2.9055399894714355 0.9651829600334167 -0.10290198773145676 -3.4222765680352873e-12 5.807437863936116e-10 -1.1710292735500616e-09 -10.27859878540039 0.73180091381073 -0.025912299752235413 -3.409554322902908e-12 5.807437863936116e-10 -1.1710292735500616e-09 -2.2216696739196777 -0.7334870100021362 0.2089199721813202 -0.0 0.0 -0.0 -22.39089584350586 -45.09280014038086 -5.293169975280762 -0.3123629689216614 34.134300231933594 0.19825199246406555 -4.0293498039245605 29.858497619628906 7.057589530944824 -0.0 0.0 -0.0 5.981939315795898 -9.865678787231445 -5.634169578552246 0.2846028804779053 45.93719482421875 -1.7811198234558105 9.446009635925293 -16.575298309326172 21.1885986328125
-33.98241310841597 42.382259535845414 19.96276647286978 12.703997611999512 -71.78600311279297 -19.404985427856445 -7.560410976409912 13.203099250793457 1.903439998626709 5.259670257568359 -9.364169120788574 0.7533729672431946 -8.01487922668457 12.385699272155762 -10.472198486328125 6.391349792480469 -19.241498947143555 -19.08289909362793 -0.0 0.0 -0.0 -0.0 0.0 -0.0 -3.816665408197528e-14 -1.43761066419279e-12 3.0533323265580226e-13 33.53880310058594 -6.087369441986084 66.26909637451172 -9.625870704650879 -3.2670300006866455 19.278902053833008 -0.8699690103530884 26.63089942932129 3.9358596801757812 -1.1644136765909252e-09 -1.965201057441135e-10 -1.1586887005421431e-09 -1.9941821527424963e-09 -3.4313094032789593e-10 -2.047348290901141e-09 -1.1644136765909252e-09 -1.965201057441135e-10 -1.1586887005421431e-09 7.7309088706970215 5.474880218505859 0.41731396317481995 -1.1644136765909252e-09 -1.965201057441135e-10 -1.1586823722709028e-09 2.9055399894714355 0.9651829600334167 0.10290198773145676 -1.1644136765909252e-09 -1.965201057441135e-10 -1.1586887005421431e-09 10.27859878540039 0.73180091381073 0.025912299752235413 -1.1644136765909252e-09 -1.965201057441135e-10 -1.1586823722709028e-09 2.2216696739196777 -0.7334870100021362 -0.2089199721813202 -3.816665408197528e-14 -1.43761066419279e-12 3.0533323265580226e-13 -114.3969955444336 58.72319793701172 40.718997955322266 28.13610076904297 -39.257198333740234 -82.89419555664062 9.94633674621582 -62.686798095703125 16.00339698791504 1.0671651340388166e-09 2.696474155072792e-10 -9.591598626457198e-10 1.8731176609776412e-09 4.94588925370465e-10 -1.585379161284095e-09 1.0671523664740334e-09 2.696474155072792e-10 -9.591598626457198e-10 -7.7309088706970215 5.474880218505859 -0.41731396317481995 1.0671523664740334e-09 2.696601275609112e-10 -9.591852867529838e-10 -2.9055399894714355 0.9651829600334167 -0.10290198773145676 1.0671395989092503e-09 2.696601275609112e-10 -9.591598626457198e-10 -10.27859878540039 0.73180091381073 -0.025912299752235413 1.0671651340388166e-09 2.696601275609112e-10 -9.591725191882006e-10 -2.2216696739196777 -0.7334870100021362 0.2089199721813202 -0.0 0.0 -0.0 -22.214000701904297 -43.43510055541992 -6.395790100097656 -0.33843696117401123 36.55869674682617 0.29802998900413513 -3.0975794792175293 21.788301467895508 7.045909881591797 -0.0 0.0 -0.0 5.906189441680908 -7.6059393882751465 -6.990309715270996 0.2931039035320282 46.1537971496582 -1.7769699096679688 10.391098976135254 -16.7549991607666 23.146799087524414
-35.24332131104392 41.876740159899846 19.995998024564752 12.916007041931152 -70.79979705810547 -20.064016342163086 -9.029597282409668 14.60059928894043 4.3236799240112305 4.5042595863342285 -9.087610244750977 1.261299967765808 -8.589730262756348 12.102299690246582 -11.57559871673584 7.954902172088623 -19.299598693847656 -20.905099868774414 -0.0 0.0 -0.0 -0.0 0.0 -0.0 3.816665408197528e-14 1.2722218027325094e-14 -3.6894432279242773e-13 27.986597061157227 -9.802370071411133 64.19189453125 -7.656408786773682 -2.8342397212982178 13.473897933959961 -2.111150026321411 37.55719757080078 6.203709602355957 3.030305117945886e-09 -6.374085703697574e-10 2.1088730761675833e-09 5.287672077969319e-09 -1.1152041512474398e-09 3.5415601562505117e-09 3.030305117945886e-09 -6.374085703697574e-10 2.1088601975804977e-09 7.7309088706970215 5.474880218505859 0.41731396317481995 3.030305117945886e-09 -6.374085703697574e-10 2.1088730761675833e-09 2.9055399894714355 0.9651829600334167 0.10290198773145676 3.030305117945886e-09 -6.374085703697574e-10 2.1088730761675833e-09 10.27859878540039 0.73180091381073 0.025912299752235413 3.030305117945886e-09 -6.374085703697574e-10 2.1088792934165213e-09 2.2216696739196777 -0.7334870100021362 -0.2089199721813202 3.816665408197528e-14 1.2722218027325094e-14 -3.6894432279242773e-13 -113.6969985961914 53.34089660644531 45.315696716308594 27.957998275756836 -40.63019943237305 -85.05859375 11.784998893737793 -65.72250366210938 18.155099868774414 1.896984569427218e-09 6.490875892328773e-11 -5.482067577666783e-10 3.28477489652812e-09 1.210646305427332e-10 -8.434830611747657e-10 1.8969716908401324e-09 6.49214779158136e-11 -5.482067577666783e-10 -7.7309088706970215 5.474880218505859 -0.41731396317481995 1.896984569427218e-09 6.49214779158136e-11 -5.482130860379186e-10 -2.9055399894714355 0.9651829600334167 -0.10290198773145676 1.8969590342976517e-09 6.49214779158136e-11 -5.482130860379186e-10 -10.27859878540039 0.73180091381073 -0.025912299752235413 1.896984569427218e-09 6.49214779158136e-11 -5.482257980915506e-10 -2.2216696739196777 -0.7334870100021362 0.2089199721813202 -0.0 0.0 -0.0 -22.69049835205078 -42.639503479003906 -7.781469345092773 -0.4066599905490875 40.60770034790039 0.45500296354293823 -2.0116100311279297 12.481599807739258 7.306278705596924 -0.0 0.0 -0.0 5.400179386138916 -5.559230804443359 -8.472119331359863 0.300527960062027 46.4424934387207 -1.7864699363708496 11.270499229431152 -16.77979850769043 25.092998504638672
-36.144010993095804 41.587911950467515 19.883698295387223 15.89899730682373 -71.50850677490234 -22.531023025512695 -12.204599380493164 15.10460090637207 5.7570600509643555 3.8372201919555664 -8.816819190979004 1.4451699256896973 -8.529470443725586 12.937599182128906 -12.237199783325195 9.00529956817627 -20.484098434448242 -22.05389976501465 -0.0 0.0 -0.0 -0.0 0.0 -0.0 1.3994439830057603e-13 5.979442201792251e-13 -2.289999244918517e-13 26.329700469970703 -10.140399932861328 63.278194427490234 -9.128609657287598 -3.6392197608947754 16.17949867248535 0.10152000188827515 18.2549991607666 2.4865200519561768 1.938675220358732e-09 3.5825765964947465e-11 1.5519324714219351e-09 3.386756208811903e-09 5.338242695107631e-11 2.6200199787496103e-09 1.938675220358732e-09 3.5825765964947465e-11 1.5519070473146712e-09 7.7309088706970215 5.474880218505859 0.41731396317481995 1.938675220358732e-09 3.5825765964947465e-11 1.5519324714219351e-09 2.9055399894714355 0.9651829600334167 0.10290198773145676 1.938675220358732e-09 3.5825765964947465e-11 1.5519324714219351e-09 10.27859878540039 0.73180091381073 0.025912299752235413 1.938675220358732e-09 3.5825765964947465e-11 1.5519387996931755e-09 2.2216696739196777 -0.7334870100021362 -0.2089199721813202 1.3994439830057603e-13 5.979442201792251e-13 -2.289999244918517e-13 -111.46099853515625 47.46269989013672 47.61229705810547 27.780595779418945 -41.36740493774414 -86.47959899902344 13.887396812438965 -67.99419403076172 20.426097869873047 1.286585171733634e-09 6.152464648856437e-11 -2.3518928471411016e-10 2.2209303285336546e-09 1.110904077061825e-10 -3.399058534636623e-10 1.286585171733634e-09 6.152464648856437e-11 -2.351765726604782e-10 -7.7309088706970215 5.474880218505859 -0.41731396317481995 1.2865979392984173e-09 6.153736548109023e-11 -2.351829286872942e-10 -2.9055399894714355 0.9651829600334167 -0.10290198773145676 1.286585171733634e-09 6.153736548109023e-11 -2.3518928471411016e-10 -10.27859878540039 0.73180091381073 -0.025912299752235413 1.286585171733634e-09 6.153736548109023e-11 -2.352019967677421e-10 -2.2216696739196777 -0.7334870100021362 0.2089199721813202 -0.0 0.0 -0.0 -24.983598709106445 -44.865901947021484 -8.431180000305176 -0.5363089442253113 45.95879364013672 0.6206109523773193 -1.686689853668213 9.956819534301758 7.245439529418945 -0.0 0.0 -0.0 3.4371297359466553 -3.9661996364593506 -9.939510345458984 0.27957794070243835 46.477394104003906 -1.8881698846817017 11.962799072265625 -16.431400299072266 27.154096603393555
